<svg xmlns="http://www.w3.org/2000/svg" viewBox="0 0 200 200">
  <!-- Larger scaling to reduce white borders -->
  <g transform="scale(1.2) translate(-16.5, -16.5)">
    <!-- Shadow for the stylized H -->
    <path d="M70 45
             C67 45, 65 47, 65 50
             L65 150
             C65 153, 67 155, 70 155
             L80 155
             C83 155, 85 153, 85 150
             L85 110
             C85 107, 87 105, 90 105
             L110 105
             C113 105, 115 107, 115 110
             L115 150
             C115 153, 117 155, 120 155
             L130 155
             C133 155, 135 153, 135 150
             L135 50
             C135 47, 133 45, 130 45
             L120 45
             C117 45, 115 47, 115 50
             L115 90
             C115 93, 113 95, 110 95
             L90 95
             C87 95, 85 93, 85 90
             L85 50
             C85 47, 83 45, 80 45
             L70 45Z" 
          fill="#CC484C" 
          transform="translate(3,3)" 
          opacity="0.3" />
          
    <!-- Main stylized narrower H -->
    <path d="M70 45
             C67 45, 65 47, 65 50
             L65 150
             C65 153, 67 155, 70 155
             L80 155
             C83 155, 85 153, 85 150
             L85 110
             C85 107, 87 105, 90 105
             L110 105
             C113 105, 115 107, 115 110
             L115 150
             C115 153, 117 155, 120 155
             L130 155
             C133 155, 135 153, 135 150
             L135 50
             C135 47, 133 45, 130 45
             L120 45
             C117 45, 115 47, 115 50
             L115 90
             C115 93, 113 95, 110 95
             L90 95
             C87 95, 85 93, 85 90
             L85 50
             C85 47, 83 45, 80 45
             L70 45Z" 
          fill="#FF5A5F" />
    
    <!-- Light circular flourish -->
    <circle cx="100" cy="100" r="55" 
            fill="none" 
            stroke="#FF5A5F" 
            stroke-width="1.5" 
            stroke-opacity="1" />
  </g>
</svg>